<?xml version="1.0" encoding="UTF-8"?>
<svg version="1.1" xmlns="http://www.w3.org/2000/svg" width="1024" height="1024">
<path d="M0 0 C22.43853557 -0.89307604 45.34729345 9.5595981 61.91796875 24.15625 C62.748125 24.84332031 63.57828125 25.53039062 64.43359375 26.23828125 C79.96309091 39.45740843 89.25577347 56.85530496 90.91796875 77.15625 C91.16030478 88.43125257 89.1578295 99.49510099 87.41796875 110.59375 C81.69625653 147.20315256 89.18608325 169.06464128 108.10205078 200.95629883 C119.07230187 219.47226613 124.74176766 236.11531956 119.54296875 257.78125 C112.18811014 281.25817188 95.9282822 305.43170195 73.91796875 317.15625 C52.18590893 328.12465166 29.4198739 323.42990758 6.54296875 319.09375 C-17.89291538 314.46803517 -35.04067911 313.92803308 -57.3984375 325.74707031 C-62.63007214 328.49424964 -67.89532973 331.17446081 -73.16867065 333.84042358 C-75.08655863 334.81431196 -76.99752088 335.80087066 -78.90844727 336.78833008 C-98.5662463 346.82203868 -120.33728694 353.06425802 -142.17578125 346.2890625 C-167.1954917 336.53675601 -188.12785919 318.94798013 -199.08203125 294.15625 C-203.75513603 281.26492646 -203.61003779 268.56178107 -201.76953125 255.15625 C-201.56976685 253.63632446 -201.56976685 253.63632446 -201.3659668 252.08569336 C-200.66840806 246.9142781 -199.85226005 241.80641314 -198.79614258 236.69702148 C-193.08157578 208.54800337 -200.1176263 188.33920262 -214.08203125 164.15625 C-214.85295835 162.81515806 -215.62380238 161.47401837 -216.39453125 160.1328125 C-217.68284616 157.89279703 -218.97211318 155.65333576 -220.26171875 153.4140625 C-228.82586176 138.08681944 -228.82586176 138.08681944 -230.08203125 132.15625 C-230.45521484 130.99416016 -230.45521484 130.99416016 -230.8359375 129.80859375 C-236.3510789 111.29157311 -232.99371267 93.52743869 -224.1171875 76.66015625 C-212.25388688 55.73144816 -193.80534943 35.81277297 -170.14453125 28.78125 C-168.79868051 28.52462592 -167.44184237 28.32383236 -166.08203125 28.15625 C-165.01984375 28.02476562 -163.95765625 27.89328125 -162.86328125 27.7578125 C-147.8119995 26.33489721 -133.33304692 29.17669594 -118.54321289 31.74682617 C-108.93696433 33.40936915 -99.77562232 34.3070097 -90.01953125 34.21875 C-88.57803711 34.21198242 -88.57803711 34.21198242 -87.10742188 34.20507812 C-84.76555703 34.19342706 -82.42382944 34.17707025 -80.08203125 34.15625 C-79.75203125 33.49625 -79.42203125 32.83625 -79.08203125 32.15625 C-77.08788091 31.78954096 -75.08638321 31.46232894 -73.08203125 31.15625 C-63.60902432 28.17297729 -55.09847231 23.6497975 -46.51953125 18.71875 C-15.71575029 1.17941841 -15.71575029 1.17941841 0 0 Z M-106.08203125 77.15625 C-107.37560547 77.78080078 -107.37560547 77.78080078 -108.6953125 78.41796875 C-132.06968609 90.22354962 -151.25518677 112.27601033 -159.83984375 137.0234375 C-169.10767652 165.55328923 -167.61286997 194.94709064 -154.36474609 222.03076172 C-141.08544571 247.70051147 -116.56156373 269.06780774 -89.08203125 278.15625 C-57.54244576 287.45431852 -28.2877138 284.88111156 0.85546875 269.03125 C8.70562587 264.62201461 15.32319015 259.24935112 21.91796875 253.15625 C23.02205078 252.17398438 23.02205078 252.17398438 24.1484375 251.171875 C44.29597476 232.35142103 53.96746157 205.61577469 56.203125 178.7265625 C57.1098777 147.73927445 43.78770166 120.32569938 22.91796875 98.15625 C22.01691406 97.14111328 22.01691406 97.14111328 21.09765625 96.10546875 C2.45040647 75.96482451 -25.45869202 67.07221534 -52.08203125 65.15625 C-70.34954138 64.62745365 -89.89481307 68.63801595 -106.08203125 77.15625 Z " fill="#03082B" transform="translate(561.08203125,300.84375)"/>
<path d="M0 0 C0.33 0.99 0.66 1.98 1 3 C-0.7734375 5.35546875 -0.7734375 5.35546875 -3.375 8.1875 C-8.69184343 14.18409656 -12.43191535 20.6794204 -16.1875 27.7265625 C-18 31 -18 31 -20 33 C-21 30 -21 30 -20.1015625 27.72265625 C-14.50259439 17.6356264 -7.64248415 8.62228981 0 0 Z " fill="#0B0C1F" transform="translate(424,398)"/>
<path d="M0 0 C0.99 0 1.98 0 3 0 C3.30703857 0.59425781 3.61407715 1.18851562 3.93041992 1.80078125 C5.34597771 4.53566549 6.76670127 7.26783505 8.1875 10 C8.67025391 10.93457031 9.15300781 11.86914062 9.65039062 12.83203125 C12.26048448 17.84201007 14.93772087 22.63385421 18.20825195 27.24609375 C19.23557564 29.52185489 18.81627215 30.69582735 18 33 C11.36869373 22.26153096 4.85964208 11.68019237 0 0 Z " fill="#0A0B1D" transform="translate(650,472)"/>
<path d="M0 0 C4.76923793 7.15385689 3.89186164 18.53250037 2.55078125 26.75390625 C2.10479695 28.52202842 1.56601814 30.26656945 1 32 C0.67 32 0.34 32 0 32 C0 21.44 0 10.88 0 0 Z " fill="#0A0A1C" transform="translate(365,499)"/>
<path d="M0 0 C0.99 0.33 1.98 0.66 3 1 C-12.71162439 19.17842533 -12.71162439 19.17842533 -21 22 C-19.64639198 18.81902116 -18.35994808 17.28553909 -15.5 15.375 C-9.96825875 11.41650626 -3.08212854 6.16425709 0 0 Z " fill="#0A0B1D" transform="translate(658,594)"/>
<path d="M0 0 C7.83045606 0.79152624 13.41742593 7.96847588 18.26953125 13.6640625 C19.89301051 15.7471418 21.47446539 17.84446645 23 20 C22.67 20.66 22.34 21.32 22 22 C18.71702256 18.82292506 15.6905086 15.50712751 12.6875 12.0625 C9.22776828 8.17320428 5.71663817 5.00579586 1.43359375 2.05859375 C0.96050781 1.70925781 0.48742187 1.35992187 0 1 C0 0.67 0 0.34 0 0 Z " fill="#0A0B1F" transform="translate(617,323)"/>
<path d="M0 0 C-8.9873083 5.99153887 -21.73117768 3.97547221 -32 3 C-32 2.67 -32 2.34 -32 2 C-26.01793817 1.05172071 -20.09796497 0.67667684 -14.05273438 0.39453125 C-9.93757353 0.20308746 -9.93757353 0.20308746 -5.89916992 -0.54492188 C-3.62043344 -1.09095154 -2.20464392 -0.70863555 0 0 Z " fill="#0C0C1E" transform="translate(459,646)"/>
<path d="M0 0 C8.59599799 -0.22588024 16.60182604 0.08041738 25 2 C25 2.66 25 3.32 25 4 C26.65 3.67 28.3 3.34 30 3 C30 3.66 30 4.32 30 5 C30.66 5.33 31.32 5.66 32 6 C21.26304429 4.6715557 10.63969219 2.95343186 0 1 C0 0.67 0 0.34 0 0 Z " fill="#0F1026" transform="translate(545,615)"/>
<path d="M0 0 C0.75917725 0.00386719 1.51835449 0.00773438 2.30053711 0.01171875 C8.01133714 0.09926854 13.41492348 0.73027378 18.9375 2.25 C18.9375 2.58 18.9375 2.91 18.9375 3.25 C8.87355753 3.3676305 -1.02807967 3.12801178 -11.0625 2.25 C-7.31017734 -0.25154844 -4.34300791 -0.0525572 0 0 Z " fill="#030412" transform="translate(539.0625,612.75)"/>
<path d="M0 0 C-1.03640625 0.67546875 -2.0728125 1.3509375 -3.140625 2.046875 C-4.51058045 2.94766763 -5.88036304 3.84872318 -7.25 4.75 C-7.93191406 5.1934375 -8.61382812 5.636875 -9.31640625 6.09375 C-12.90875794 8.46539966 -16.08729138 10.78701214 -19 14 C-19.66 13.67 -20.32 13.34 -21 13 C-16.36669336 6.86399931 -8.35104551 -2.60845406 0 0 Z " fill="#090A1D" transform="translate(382,336)"/>
<path d="M0 0 C0 0.33 0 0.66 0 1 C-4.10334171 1.36419665 -8.2077437 1.7146393 -12.3125 2.0625 C-13.47974609 2.16626953 -14.64699219 2.27003906 -15.84960938 2.37695312 C-17.52700195 2.51713867 -17.52700195 2.51713867 -19.23828125 2.66015625 C-20.7857605 2.79369507 -20.7857605 2.79369507 -22.36450195 2.92993164 C-25 3 -25 3 -28 2 C-27.34 2 -26.68 2 -26 2 C-26 1.34 -26 0.68 -26 0 C-17.19127807 -1.04865737 -8.82248707 -0.84831606 0 0 Z " fill="#0A0C1F" transform="translate(421,329)"/>
<path d="M0 0 C0.33 0 0.66 0 1 0 C1.09038099 5.15171623 0.84681133 9.91913204 0 15 C-0.33 15 -0.66 15 -1 15 C-1.33 19.95 -1.66 24.9 -2 30 C-2.33 30 -2.66 30 -3 30 C-3.57446809 9.46808511 -3.57446809 9.46808511 0 0 Z " fill="#10132F" transform="translate(331,391)"/>
<path d="M0 0 C2.60478883 -0.0809313 5.20706653 -0.14045434 7.8125 -0.1875 C8.55048828 -0.21263672 9.28847656 -0.23777344 10.04882812 -0.26367188 C12.20703125 -0.29296875 12.20703125 -0.29296875 16 0 C16.99 0.99 17.98 1.98 19 3 C11.08 3 3.16 3 -5 3 C-5 2.67 -5 2.34 -5 2 C-3.35 1.67 -1.7 1.34 0 1 C0 0.67 0 0.34 0 0 Z " fill="#0D102D" transform="translate(498,364)"/>
<path d="M0 0 C0.33 0 0.66 0 1 0 C2.22026945 9.00360975 1.59770776 17.07396326 0 26 C-0.33 26 -0.66 26 -1 26 C-1.33 23.36 -1.66 20.72 -2 18 C-1.67 18 -1.34 18 -1 18 C-1.01160156 17.3709375 -1.02320313 16.741875 -1.03515625 16.09375 C-1.09286873 10.61930912 -0.80228473 5.41542194 0 0 Z " fill="#13142C" transform="translate(681,531)"/>
<path d="M0 0 C0.671875 1.6953125 0.671875 1.6953125 1 4 C-0.109375 6.3671875 -0.109375 6.3671875 -1.75 8.875 C-4.06749888 12.51832382 -6.15299557 16.10076843 -8 20 C-9.12895259 17.21043691 -9.0861874 16.20363291 -7.890625 13.37890625 C-7.34921875 12.44949219 -6.8078125 11.52007812 -6.25 10.5625 C-5.71890625 9.63566406 -5.1878125 8.70882813 -4.640625 7.75390625 C-3.09895288 5.16609947 -1.55459491 2.58006565 0 0 Z " fill="#0A0C1D" transform="translate(343,368)"/>
<path d="M0 0 C2.82144057 2.49199092 4.37080031 5.25243979 6.125 8.5625 C6.64320313 9.53316406 7.16140625 10.50382813 7.6953125 11.50390625 C8.47544804 12.99644102 9.24683714 14.49367427 10 16 C9.34 16.66 8.68 17.32 8 18 C6.65590238 15.75583701 5.32470104 13.50557204 4 11.25 C3.6184375 10.61578125 3.236875 9.9815625 2.84375 9.328125 C0.82084348 5.86028524 0 4.10651746 0 0 Z " fill="#0A0B1D" transform="translate(364,595)"/>
<path d="M0 0 C0 0.33 0 0.66 0 1 C-13.6332574 3.29612756 -13.6332574 3.29612756 -20 3 C-20.33 2.34 -20.66 1.68 -21 1 C-18.81457668 0.63323686 -16.62651594 0.282173 -14.4375 -0.0625 C-13.21933594 -0.25972656 -12.00117187 -0.45695313 -10.74609375 -0.66015625 C-6.94539951 -1.00495333 -3.7409767 -0.68849378 0 0 Z " fill="#0D0E23" transform="translate(623,622)"/>
<path d="M0 0 C5.94 0 11.88 0 18 0 C18 0.33 18 0.66 18 1 C15.95928485 1.33910994 13.91737379 1.67102704 11.875 2 C10.16957031 2.2784375 10.16957031 2.2784375 8.4296875 2.5625 C5.23862398 2.96956049 2.21182209 3.07809902 -1 3 C-0.67 2.01 -0.34 1.02 0 0 Z " fill="#08091A" transform="translate(510,584)"/>
<path d="M0 0 C0.33 0 0.66 0 1 0 C1.12867289 8.06350113 0.79681084 15.97497656 0 24 C-0.33 24 -0.66 24 -1 24 C-1.89405005 15.61526036 -2.27904619 8.17443013 0 0 Z " fill="#0D0E23" transform="translate(645,416)"/>
<path d="M0 0 C7.78808563 0.51648735 15.34925042 1.44876534 23 3 C23 3.33 23 3.66 23 4 C16.98386887 5.32061415 11.88790718 4.52649445 6 3 C5.34 3 4.68 3 4 3 C4 2.34 4 1.68 4 1 C2.68 0.67 1.36 0.34 0 0 Z " fill="#10132D" transform="translate(421,330)"/>
<path d="M0 0 C3.67951114 0.60762569 5.85991496 2.19548775 8.75 4.5 C9.54921875 5.1290625 10.3484375 5.758125 11.171875 6.40625 C11.77515625 6.9321875 12.3784375 7.458125 13 8 C13 8.33 13 8.66 13 9 C10.8125 9.3125 10.8125 9.3125 8 9 C6.29220027 7.37550757 4.62449243 5.70779973 3 4 C0.82653432 3.13880866 0.82653432 3.13880866 -1 3 C-0.67 2.01 -0.34 1.02 0 0 Z " fill="#0B0D23" transform="translate(433,557)"/>
<path d="M0 0 C0 0.33 0 0.66 0 1 C-2.41474617 1.53160457 -4.83108107 2.05054766 -7.25 2.5625 C-8.27287109 2.78969727 -8.27287109 2.78969727 -9.31640625 3.02148438 C-12.81769038 3.75233495 -15.60298173 4.32203546 -19 3 C-18.67 2.34 -18.34 1.68 -18 1 C-11.90285717 -0.80382599 -6.19690934 -1.37709097 0 0 Z " fill="#10122D" transform="translate(491,367)"/>
<path d="M0 0 C1.52730192 2.29095288 2.9352021 4.52549399 4.25 6.9375 C4.62640625 7.60652344 5.0028125 8.27554688 5.390625 8.96484375 C6 11 6 11 5.109375 13.25390625 C4.74328125 13.83011719 4.3771875 14.40632812 4 15 C3.13419713 13.06767179 2.28270059 11.12892806 1.4375 9.1875 C0.96183594 8.10855469 0.48617188 7.02960937 -0.00390625 5.91796875 C-1 3 -1 3 0 0 Z " fill="#0A0C22" transform="translate(403,514)"/>
<path d="M0 0 C0.33 0 0.66 0 1 0 C1.20496094 1.03640625 1.40992188 2.0728125 1.62109375 3.140625 C1.89317769 4.51042689 2.16531596 5.88021799 2.4375 7.25 C2.57220703 7.93191406 2.70691406 8.61382812 2.84570312 9.31640625 C3.49220711 12.56469458 4.15002695 15.79815978 5 19 C4.01 18.67 3.02 18.34 2 18 C1.3046875 16.00390625 1.3046875 16.00390625 0.875 13.5625 C0.26876383 10.1726922 0.26876383 10.1726922 -1 7 C-0.71758117 4.6599583 -0.38749213 2.32495277 0 0 Z " fill="#11132D" transform="translate(644,446)"/>
<path d="M0 0 C3.16470185 4.74705277 3.10927475 8.31771295 3 14 C2.01 13.67 1.02 13.34 0 13 C0 8.71 0 4.42 0 0 Z " fill="#0B0C1E" transform="translate(649,371)"/>
<path d="M0 0 C-0.33 0.66 -0.66 1.32 -1 2 C-3.109375 2.66796875 -3.109375 2.66796875 -5.75 3.1875 C-6.61109375 3.36667969 -7.4721875 3.54585938 -8.359375 3.73046875 C-11.15156261 4.01547015 -13.29271479 3.68655974 -16 3 C-16 2.67 -16 2.34 -16 2 C-14.02 2 -12.04 2 -10 2 C-9.67 1.34 -9.34 0.68 -9 0 C-5.44307323 -0.85056945 -3.50729422 -1.16909807 0 0 Z " fill="#11132C" transform="translate(491,333)"/>
<path d="M0 0 C4.8274799 1.41292095 8.7162359 3.42974154 13 6 C12.01 6.66 11.02 7.32 10 8 C8.32819726 7.05065487 6.66266064 6.09026687 5 5.125 C4.071875 4.59132813 3.14375 4.05765625 2.1875 3.5078125 C1.465625 3.01023437 0.74375 2.51265625 0 2 C0 1.34 0 0.68 0 0 Z " fill="#0C0D21" transform="translate(598,310)"/>
<path d="M0 0 C7.85546636 -0.31918373 15.26940505 0.64290496 23 2 C23 2.33 23 2.66 23 3 C17.42627695 3.96098673 14.3654765 3.97099137 9 2 C6.00968075 1.54677204 3.01320919 1.25444878 0 1 C0 0.67 0 0.34 0 0 Z " fill="#1B1E3A" transform="translate(559,301)"/>
<path d="M0 0 C3 1 3 1 4.38671875 3.28515625 C4.81597656 4.20167969 5.24523437 5.11820312 5.6875 6.0625 C6.34298828 7.44115234 6.34298828 7.44115234 7.01171875 8.84765625 C7.33785156 9.55792969 7.66398437 10.26820313 8 11 C7.34 11.66 6.68 12.32 6 13 C4.99491199 11.21118264 3.99607264 9.41885304 3 7.625 C2.1646875 6.12839844 2.1646875 6.12839844 1.3125 4.6015625 C0 2 0 2 0 0 Z " fill="#0C0D22" transform="translate(343,456)"/>
<path d="M0 0 C0.66 0.33 1.32 0.66 2 1 C0.54997977 5.10839064 -1.3979134 8.50344613 -4 12 C-4.66 12 -5.32 12 -6 12 C-4.43358249 7.69235185 -2.31663844 3.93828536 0 0 Z " fill="#0B0C1D" transform="translate(668,579)"/>
<path d="M0 0 C1.94926822 1.94926822 2.93568996 3.5107058 4.1875 5.9375 C4.55230469 6.62714844 4.91710937 7.31679688 5.29296875 8.02734375 C6 10 6 10 5 13 C2.3402111 11.67010555 2.0164272 10.31101809 0.8125 7.625 C0.44769531 6.83351563 0.08289063 6.04203125 -0.29296875 5.2265625 C-1 3 -1 3 0 0 Z " fill="#0A0B1C" transform="translate(336,439)"/>
<path d="M0 0 C1.14897419 4.59589675 0.7140729 5.26171852 -1.4375 9.25 C-1.91058594 10.14203125 -2.38367188 11.0340625 -2.87109375 11.953125 C-3.24363281 12.62859375 -3.61617187 13.3040625 -4 14 C-4.66 13.01 -5.32 12.02 -6 11 C-4.02 7.37 -2.04 3.74 0 0 Z " fill="#090A1A" transform="translate(675,566)"/>
<path d="M0 0 C0.33 0 0.66 0 1 0 C1.33 4.62 1.66 9.24 2 14 C1.67 14 1.34 14 1 14 C0.67 15.65 0.34 17.3 0 19 C-0.33 19 -0.66 19 -1 19 C-1.10349817 12.58311325 -0.74507544 6.37305598 0 0 Z " fill="#161935" transform="translate(359,557)"/>
<path d="M0 0 C0.66 0.33 1.32 0.66 2 1 C1.3125 2.9375 1.3125 2.9375 0 5 C-2.625 5.75 -2.625 5.75 -5 6 C-5.33 5.01 -5.66 4.02 -6 3 C-4.03533587 1.93224776 -2.03144641 0.93446535 0 0 Z " fill="#0C0E2D" transform="translate(554,573)"/>
<path d="M0 0 C0.99 0.33 1.98 0.66 3 1 C0.36 3.64 -2.28 6.28 -5 9 C-5.66 8.67 -6.32 8.34 -7 8 C-4.69 5.36 -2.38 2.72 0 0 Z " fill="#080A1A" transform="translate(585,551)"/>
<path d="M0 0 C0.33 0 0.66 0 1 0 C1.24942657 2.24784424 1.47383488 4.49847506 1.6875 6.75 C1.87892578 8.62945312 1.87892578 8.62945312 2.07421875 10.546875 C2 14 2 14 -1 18 C-0.505 9.09 -0.505 9.09 0 0 Z " fill="#0C0E27" transform="translate(617,472)"/>
<path d="M0 0 C1.73662334 3.22515763 2.8905928 6.51329166 4 10 C3.34 10.66 2.68 11.32 2 12 C0.5 10.9375 0.5 10.9375 -1 9 C-1.43076923 2.86153846 -1.43076923 2.86153846 0 0 Z " fill="#0D0E22" transform="translate(332,428)"/>
<path d="M0 0 C0.66 0.33 1.32 0.66 2 1 C-0.37409996 3.62400522 -2.81364829 5.44568209 -6 7 C-8.16015625 6.578125 -8.16015625 6.578125 -10 6 C-8.3811004 4.96951963 -6.75467511 3.95085322 -5.125 2.9375 C-4.22007812 2.36902344 -3.31515625 1.80054688 -2.3828125 1.21484375 C-1.20332031 0.61349609 -1.20332031 0.61349609 0 0 Z " fill="#0E0F26" transform="translate(531,310)"/>
<path d="M0 0 C-1 3 -1 3 -3.9375 4.6875 C-7 6 -7 6 -9 6 C-9 5.01 -9 4.02 -9 3 C-2.25 0 -2.25 0 0 0 Z " fill="#0E0F24" transform="translate(478,637)"/>
<path d="M0 0 C0 0.66 0 1.32 0 2 C-4.62921525 3.0161692 -8.34462607 2.83796731 -13 2 C-13 1.67 -13 1.34 -13 1 C-11.39796533 0.63631108 -9.79325797 0.28438048 -8.1875 -0.0625 C-7.29417969 -0.25972656 -6.40085937 -0.45695313 -5.48046875 -0.66015625 C-3 -1 -3 -1 0 0 Z " fill="#121430" transform="translate(534,582)"/>
<path d="M0 0 C3.63 0.66 7.26 1.32 11 2 C6.64467851 4.17766075 5.53374042 4.03039555 1 3 C0.67 2.01 0.34 1.02 0 0 Z " fill="#10132C" transform="translate(476,580)"/>
<path d="M0 0 C2.04219706 1.69179328 2.91793306 2.63727666 3.51171875 5.26171875 C3.56972656 6.06222656 3.62773437 6.86273438 3.6875 7.6875 C3.75324219 8.49574219 3.81898438 9.30398438 3.88671875 10.13671875 C3.92410156 10.75160156 3.96148437 11.36648438 4 12 C1.49484216 9.49484216 0.94900914 7.38931835 0 4 C0 2.68 0 1.36 0 0 Z " fill="#060818" transform="translate(397,500)"/>
<path d="M0 0 C3.91211733 1.15585285 6.8745041 2.35534962 10 5 C7 6 7 6 3.875 4.75 C1 3 1 3 0 0 Z " fill="#0A0A1A" transform="translate(402,637)"/>
<path d="M0 0 C0.99 0.33 1.98 0.66 3 1 C0.36 2.98 -2.28 4.96 -5 7 C-5.66 6.67 -6.32 6.34 -7 6 C-2.25 1.125 -2.25 1.125 0 0 Z " fill="#0F0F25" transform="translate(644,609)"/>
<path d="M0 0 C4.7517398 0.43197635 6.92000054 1.32769295 10 5 C5.75354935 5 3.61475228 3.18249194 0 1 C0 0.67 0 0.34 0 0 Z " fill="#0E1028" transform="translate(556,378)"/>
<path d="M0 0 C0.66 0.33 1.32 0.66 2 1 C-1.07999946 4.67230705 -3.2482602 5.56802365 -8 6 C-5.63404067 3.38499232 -3.13950774 1.61000397 0 0 Z " fill="#0E0F24" transform="translate(515,319)"/>
<path d="M0 0 C2.69082872 0.17635452 5.32851446 0.61835921 8 1 C8.33 1.99 8.66 2.98 9 4 C1.25 3.25 1.25 3.25 -1 1 C-0.67 0.67 -0.34 0.34 0 0 Z " fill="#0F1129" transform="translate(417,644)"/>
<path d="M0 0 C0 0.66 0 1.32 0 2 C1.65 1.67 3.3 1.34 5 1 C5 1.66 5 2.32 5 3 C5.66 3.33 6.32 3.66 7 4 C-0.425 3.01 -0.425 3.01 -8 2 C-8 1.67 -8 1.34 -8 1 C-2.25 0 -2.25 0 0 0 Z " fill="#131531" transform="translate(570,617)"/>
<path d="M0 0 C0 0.33 0 0.66 0 1 C-3.96 1.66 -7.92 2.32 -12 3 C-12 2.34 -12 1.68 -12 1 C-7.53763531 -0.80619523 -4.68965706 -1.11658501 0 0 Z " fill="#101129" transform="translate(532,615)"/>
<path d="M0 0 C3.7952131 1.49097658 5.61042731 3.75700849 8 7 C5 7 5 7 2.3125 4.625 C0 2 0 2 0 0 Z " fill="#0B0C1F" transform="translate(576,390)"/>
<path d="M0 0 C0.66 0.99 1.32 1.98 2 3 C1.01 4.98 0.02 6.96 -1 9 C-1.99 9 -2.98 9 -4 9 C-2.80100302 5.9168649 -1.52299523 2.93720508 0 0 Z " fill="#0C0F27" transform="translate(605,523)"/>
<path d="M0 0 C3 1 3 1 4.1875 2.75 C5.10819096 5.29960574 5.14948718 7.30923081 5 10 C2.35534962 6.8745041 1.15585285 3.91211733 0 0 Z " fill="#080818" transform="translate(672,511)"/>
<path d="M0 0 C0.66 0 1.32 0 2 0 C0.515 5.445 0.515 5.445 -1 11 C-1.66 10.01 -2.32 9.02 -3 8 C-1.55555556 1.55555556 -1.55555556 1.55555556 0 0 Z " fill="#10122B" transform="translate(401,434)"/>
<path d="M0 0 C4 0 4 0 5.8125 1.75 C7 4 7 4 6 8 C4.02 5.36 2.04 2.72 0 0 Z " fill="#0E0F25" transform="translate(585,400)"/>
<path d="M0 0 C5.82980769 3.47307692 5.82980769 3.47307692 6.69140625 6.140625 C6.79324219 6.75421875 6.89507812 7.3678125 7 8 C5.82512964 7.24172908 4.66027408 6.46792245 3.5 5.6875 C2.52546875 5.04361328 2.52546875 5.04361328 1.53125 4.38671875 C1.0259375 3.92910156 0.520625 3.47148438 0 3 C0 2.01 0 1.02 0 0 Z " fill="#0A0B1C" transform="translate(384,623)"/>
<path d="M0 0 C0.66 0.33 1.32 0.66 2 1 C-0.36292656 3.52588702 -1.66462511 4.88820837 -5 6 C-5.66 5.34 -6.32 4.68 -7 4 C-1.7265625 0.77734375 -1.7265625 0.77734375 0 0 Z " fill="#0D1026" transform="translate(563,568)"/>
<path d="M0 0 C0.66 0.33 1.32 0.66 2 1 C-0.25 3.5625 -0.25 3.5625 -3 6 C-4.32 5.67 -5.64 5.34 -7 5 C-4.69 3.35 -2.38 1.7 0 0 Z " fill="#0D0F27" transform="translate(572,562)"/>
<path d="M0 0 C2.5625 2.25 2.5625 2.25 5 5 C4.8125 7.3125 4.8125 7.3125 4 9 C0 3.375 0 3.375 0 0 Z " fill="#0C0D22" transform="translate(594,408)"/>
<path d="M0 0 C1.43836751 0.11458693 2.87570966 0.24209116 4.3125 0.375 C5.51326172 0.47941406 5.51326172 0.47941406 6.73828125 0.5859375 C9 1 9 1 12 3 C4.61538462 3.36923077 4.61538462 3.36923077 1.5 1.5 C1.005 1.005 0.51 0.51 0 0 Z " fill="#060614" transform="translate(527,367)"/>
<path d="M0 0 C-2.97 1.32 -5.94 2.64 -9 4 C-9.66 3.34 -10.32 2.68 -11 2 C-4.5 -1.125 -4.5 -1.125 0 0 Z " fill="#13142E" transform="translate(391,332)"/>
<path d="M0 0 C-2.52956528 3.0916909 -5.22454612 3.90931332 -9 5 C-7.35234966 0.05704899 -4.76872479 -0.25776891 0 0 Z " fill="#0F1025" transform="translate(510,622)"/>
<path d="M0 0 C2.64752004 2.57784846 4.94432065 4.91648098 7 8 C5.1875 7.8125 5.1875 7.8125 3 7 C0 2.82142857 0 2.82142857 0 0 Z " fill="#10122B" transform="translate(419,541)"/>
<path d="M0 0 C0.33 0 0.66 0 1 0 C0.67 3.96 0.34 7.92 0 12 C-0.33 12 -0.66 12 -1 12 C-1.22162329 10.37675914 -1.42689803 8.751279 -1.625 7.125 C-1.74101563 6.22007812 -1.85703125 5.31515625 -1.9765625 4.3828125 C-1.98429688 3.59648437 -1.99203125 2.81015625 -2 2 C-1.34 1.34 -0.68 0.68 0 0 Z " fill="#141631" transform="translate(649,397)"/>
<path d="M0 0 C0.99 0.495 0.99 0.495 2 1 C1.67 1.66 1.34 2.32 1 3 C0.67 2.01 0.34 1.02 0 0 Z " fill="#121539" transform="translate(592,538)"/>
<path d="M0 0 C0.66 0.66 1.32 1.32 2 2 C1.34 2 0.68 2 0 2 C0 1.34 0 0.68 0 0 Z " fill="#16193A" transform="translate(360,594)"/>
<path d="M0 0 C2 1 2 1 2 1 Z " fill="#19183B" transform="translate(581,623)"/>
<path d="M0 0 C2 1 2 1 2 1 Z " fill="#16193C" transform="translate(560,568)"/>
<path d="" fill="#131638" transform="translate(0,0)"/>
<path d="" fill="#131435" transform="translate(0,0)"/>
<path d="M0 0 C2 1 2 1 2 1 Z " fill="#1A1C3D" transform="translate(329,384)"/>
<path d="" fill="#191B3D" transform="translate(0,0)"/>
<path d="M0 0 C2 1 2 1 2 1 Z " fill="#171739" transform="translate(373,336)"/>
<path d="M0 0 C2 1 2 1 2 1 Z " fill="#181C3F" transform="translate(391,328)"/>
<path d="" fill="#5C5D5D" transform="translate(0,0)"/>
<path d="" fill="#191C3B" transform="translate(0,0)"/>
<path d="" fill="#1A1B3D" transform="translate(0,0)"/>
<path d="" fill="#161A3A" transform="translate(0,0)"/>
<path d="" fill="#171838" transform="translate(0,0)"/>
<path d="" fill="#16183A" transform="translate(0,0)"/>
<path d="" fill="#1A1B3B" transform="translate(0,0)"/>
<path d="" fill="#181A3C" transform="translate(0,0)"/>
<path d="" fill="#15183C" transform="translate(0,0)"/>
<path d="" fill="#151637" transform="translate(0,0)"/>
<path d="" fill="#171838" transform="translate(0,0)"/>
<path d="" fill="#17193A" transform="translate(0,0)"/>
<path d="" fill="#161A3B" transform="translate(0,0)"/>
<path d="" fill="#111737" transform="translate(0,0)"/>
<path d="" fill="#101337" transform="translate(0,0)"/>
<path d="" fill="#111134" transform="translate(0,0)"/>
<path d="" fill="#181837" transform="translate(0,0)"/>
<path d="" fill="#1B1B3B" transform="translate(0,0)"/>
<path d="" fill="#151838" transform="translate(0,0)"/>
<path d="" fill="#121939" transform="translate(0,0)"/>
<path d="" fill="#181939" transform="translate(0,0)"/>
<path d="" fill="#111439" transform="translate(0,0)"/>
<path d="" fill="#131638" transform="translate(0,0)"/>
<path d="" fill="#18183E" transform="translate(0,0)"/>
<path d="" fill="#141437" transform="translate(0,0)"/>
<path d="" fill="#16173B" transform="translate(0,0)"/>
<path d="" fill="#1A1C3C" transform="translate(0,0)"/>
<path d="" fill="#131639" transform="translate(0,0)"/>
<path d="" fill="#131538" transform="translate(0,0)"/>
<path d="" fill="#191B3B" transform="translate(0,0)"/>
<path d="" fill="#131737" transform="translate(0,0)"/>
<path d="" fill="#161739" transform="translate(0,0)"/>
<path d="" fill="#16163A" transform="translate(0,0)"/>
<path d="" fill="#16173B" transform="translate(0,0)"/>
<path d="" fill="#141739" transform="translate(0,0)"/>
<path d="" fill="#18173A" transform="translate(0,0)"/>
<path d="" fill="#131537" transform="translate(0,0)"/>
<path d="" fill="#141739" transform="translate(0,0)"/>
<path d="" fill="#131538" transform="translate(0,0)"/>
<path d="" fill="#141838" transform="translate(0,0)"/>
<path d="" fill="#16173B" transform="translate(0,0)"/>
<path d="" fill="#151638" transform="translate(0,0)"/>
<path d="" fill="#131637" transform="translate(0,0)"/>
<path d="" fill="#141739" transform="translate(0,0)"/>
<path d="" fill="#17143B" transform="translate(0,0)"/>
<path d="" fill="#141635" transform="translate(0,0)"/>
<path d="" fill="#151536" transform="translate(0,0)"/>
<path d="" fill="#17193A" transform="translate(0,0)"/>
<path d="" fill="#17173C" transform="translate(0,0)"/>
<path d="" fill="#15173B" transform="translate(0,0)"/>
<path d="" fill="#171437" transform="translate(0,0)"/>
<path d="" fill="#13183A" transform="translate(0,0)"/>
<path d="" fill="#14173A" transform="translate(0,0)"/>
<path d="" fill="#181D3C" transform="translate(0,0)"/>
<path d="" fill="#16173B" transform="translate(0,0)"/>
<path d="" fill="#1A1C3B" transform="translate(0,0)"/>
<path d="" fill="#171A38" transform="translate(0,0)"/>
<path d="" fill="#191E3D" transform="translate(0,0)"/>
<path d="" fill="#161836" transform="translate(0,0)"/>
<path d="" fill="#16193B" transform="translate(0,0)"/>
<path d="" fill="#16183C" transform="translate(0,0)"/>
<path d="" fill="#1A1D39" transform="translate(0,0)"/>
<path d="" fill="#181837" transform="translate(0,0)"/>
<path d="" fill="#181B3D" transform="translate(0,0)"/>
<path d="" fill="#1B1E3E" transform="translate(0,0)"/>
</svg>
